HIERARCHY
ROOT Hips
{
	OFFSET 0.00000 0.00000 0.00000
	CHANNELS 6 Xposition Yposition Zposition Zrotation Yrotation Xrotation 
	JOINT LHipJoint
	{
		OFFSET 0 0 0
		CHANNELS 3 Zrotation Yrotation Xrotation
		JOINT LeftUpLeg
		{
			OFFSET 1.43652 -1.81092 0.91346
			CHANNELS 3 Zrotation Yrotation Xrotation
			JOINT LeftLeg
			{
				OFFSET 2.45984 -6.75837 0.00000
				CHANNELS 3 Zrotation Yrotation Xrotation
				JOINT LeftFoot
				{
					OFFSET 2.63718 -7.24559 0.00000
					CHANNELS 3 Zrotation Yrotation Xrotation
					JOINT LeftToeBase
					{
						OFFSET 0.19690 -0.54098 2.12239
						CHANNELS 3 Zrotation Yrotation Xrotation
						End Site
						{
							OFFSET 0.00000 -0.00000 1.10116
						}
					}
				}
			}
		}
	}
	JOINT RHipJoint
	{
		OFFSET 0 0 0
		CHANNELS 3 Zrotation Yrotation Xrotation
		JOINT RightUpLeg
		{
			OFFSET -1.35116 -1.81092 0.91345
			CHANNELS 3 Zrotation Yrotation Xrotation
			JOINT RightLeg
			{
				OFFSET -2.55576 -7.02189 0.00000
				CHANNELS 3 Zrotation Yrotation Xrotation
				JOINT RightFoot
				{
					OFFSET -2.61938 -7.19669 0.00000
					CHANNELS 3 Zrotation Yrotation Xrotation
					JOINT RightToeBase
					{
						OFFSET -0.32509 -0.89318 2.23646
						CHANNELS 3 Zrotation Yrotation Xrotation
						End Site
						{
							OFFSET -0.00000 -0.00000 1.19625
						}
					}
				}
			}
		}
	}
	JOINT LowerBack
	{
		OFFSET 0 0 0
		CHANNELS 3 Zrotation Yrotation Xrotation
		JOINT Spine
		{
			OFFSET 0.05193 2.08077 -0.11958
			CHANNELS 3 Zrotation Yrotation Xrotation
			JOINT Spine1
			{
				OFFSET 0.04960 2.08447 0.01967
				CHANNELS 3 Zrotation Yrotation Xrotation
				JOINT Neck
				{
					OFFSET 0 0 0
					CHANNELS 3 Zrotation Yrotation Xrotation
					JOINT Neck1
					{
						OFFSET -0.10699 1.82066 0.27584
						CHANNELS 3 Zrotation Yrotation Xrotation
						JOINT Head
						{
							OFFSET 0.14949 1.84747 -0.32279
							CHANNELS 3 Zrotation Yrotation Xrotation
							End Site
							{
								OFFSET 0.04969 1.88916 -0.14562
							}
						}
					}
				}
				JOINT LeftShoulder
				{
					OFFSET 0 0 0
					CHANNELS 3 Zrotation Yrotation Xrotation
					JOINT LeftArm
					{
						OFFSET 3.73629 1.27211 -0.12847
						CHANNELS 3 Zrotation Yrotation Xrotation
						JOINT LeftForeArm
						{
							OFFSET 5.10995 -0.00000 0.00000
							CHANNELS 3 Zrotation Yrotation Xrotation
							JOINT LeftHand
							{
								OFFSET 3.21207 -0.00000 0.00000
								CHANNELS 3 Zrotation Yrotation Xrotation
								JOINT LeftFingerBase
								{
									OFFSET 0 0 0
									CHANNELS 3 Zrotation Yrotation Xrotation
									JOINT LeftHandIndex1
									{
										OFFSET 0.63349 -0.00000 0.00000
										CHANNELS 3 Zrotation Yrotation Xrotation
										End Site
										{
											OFFSET 0.51074 -0.00000 0.00000
										}
									}
								}
								JOINT LThumb
								{
									OFFSET 0 0 0
									CHANNELS 3 Zrotation Yrotation Xrotation
									End Site
									{
										OFFSET 0.51853 -0.00000 0.51853
									}
								}
							}
						}
					}
				}
				JOINT RightShoulder
				{
					OFFSET 0 0 0
					CHANNELS 3 Zrotation Yrotation Xrotation
					JOINT RightArm
					{
						OFFSET -3.70251 1.29541 -0.35354
						CHANNELS 3 Zrotation Yrotation Xrotation
						JOINT RightForeArm
						{
							OFFSET -5.25109 -0.00000 0.00000
							CHANNELS 3 Zrotation Yrotation Xrotation
							JOINT RightHand
							{
								OFFSET -3.28364 -0.00000 0.00000
								CHANNELS 3 Zrotation Yrotation Xrotation
								JOINT RightFingerBase
								{
									OFFSET 0 0 0
									CHANNELS 3 Zrotation Yrotation Xrotation
									JOINT RightHandIndex1
									{
										OFFSET -0.59974 -0.00000 0.00000
										CHANNELS 3 Zrotation Yrotation Xrotation
										End Site
										{
											OFFSET -0.48353 -0.00000 0.00000
										}
									}
								}
								JOINT RThumb
								{
									OFFSET 0 0 0
									CHANNELS 3 Zrotation Yrotation Xrotation
									End Site
									{
										OFFSET -0.49091 -0.00000 0.49091
									}
								}
							}
						}
					}
				}
			}
		}
	}
}
MOTION
Frames: 14
Frame Time: .0083333
5.0902 21.0258 -0.5165 -7.5857 -2.3975 8.3374 0.0000 0.0000 0.0000 -11.8293 2.2997 -7.1979 4.9747 13.3552 40.7133 2.3006 -9.7486 33.4518 0.3140 3.6020 9.9595 0.0000 0.0000 0.0000 23.1344 9.9935 -9.2289 -6.4661 -14.8653 46.8249 -2.1559 -12.0290 26.4963 -0.8931 -6.0236 16.8530 6.1098 0.3171 7.8397 3.9992 1.1866 -0.4229 0.5984 0.4816 -4.8156 -12.3427 -6.6302 -16.8170 10.8755 -8.3745 18.7711 4.6894 -3.6531 9.7181 0.0000 -0.0000 0.0000 -93.7452 29.6703 25.9932 31.6149 -42.2380 -12.4812 -0.0000 0.0000 -16.6937 23.2707 6.1600 2.6422 -7.1250 0.0000 -0.0000 -2.9255 36.6670 0.6002 0.0000 -0.0000 0.0000 81.2498 -26.5952 33.6028 -34.4480 44.4139 -14.4257 0.0000 -0.0000 -29.0243 -19.2349 -0.7621 0.2659 7.1250 -0.0000 -0.0000 5.8211 -30.7576 2.0346
5.0916 21.1502 -0.2674 -7.6194 -2.2250 7.9932 0.0000 0.0000 0.0000 -11.8132 2.3824 -8.2226 4.9899 13.3724 40.7790 1.9441 -9.5723 31.2296 0.2942 3.4880 9.6405 0.0000 0.0000 0.0000 23.1605 9.8752 -9.9769 -6.3246 -14.7357 46.2710 -1.8672 -12.0031 24.6958 -0.8659 -5.9334 16.5912 6.1575 0.2379 8.2016 4.0628 1.1168 -0.3335 0.6443 0.4453 -4.9293 -12.3759 -6.5796 -16.6235 10.7368 -8.3019 18.9788 4.6633 -3.6419 9.7402 -0.0000 -0.0000 0.0000 -93.8220 28.7600 26.2752 30.6194 -41.4185 -11.8173 -0.0000 0.0000 -17.7468 23.6742 6.5018 2.8422 -7.1250 0.0000 -0.0000 -2.6120 37.0621 0.5106 -0.0000 -0.0000 0.0000 81.9287 -25.4844 32.3817 -33.0631 43.3785 -13.4654 0.0000 -0.0000 -29.6875 -20.8913 -0.8391 0.3202 7.1250 -0.0000 -0.0000 4.5131 -30.8601 1.5635
5.0934 21.2623 -0.0203 -7.6374 -2.0963 7.7640 0.0000 0.0000 0.0000 -11.8450 2.3750 -9.3235 4.9588 13.3372 40.6444 1.6357 -9.2929 29.0677 0.2772 3.3863 9.3562 0.0000 0.0000 0.0000 23.1246 9.8710 -10.8541 -6.1720 -14.5930 45.6684 -1.6087 -11.8460 22.9733 -0.8374 -5.8374 16.3134 6.1742 0.1836 8.4961 4.1273 1.0734 -0.2750 0.7065 0.4227 -5.0369 -12.4295 -6.5354 -16.4241 10.6290 -8.2346 19.1127 4.6495 -3.6319 9.7387 0.0000 0.0000 0.0000 -93.8688 27.8693 26.6138 29.6794 -40.6170 -11.2003 -0.0000 0.0000 -18.6888 23.8981 6.6769 2.9492 -7.1250 0.0000 -0.0000 -2.4361 37.2666 0.4639 0.0000 0.0000 0.0000 82.4778 -24.3951 31.3669 -31.7587 42.3540 -12.5780 0.0000 -0.0000 -30.3850 -22.5659 -0.8102 0.3367 7.1250 -0.0000 -0.0000 3.1822 -30.8484 1.1018
5.0952 21.3617 0.2258 -7.6248 -2.0189 7.6059 0.0000 0.0000 0.0000 -11.9318 2.2977 -10.4424 4.8821 13.2498 40.3110 1.3794 -8.9317 27.0354 0.2596 3.2780 9.0538 0.0000 0.0000 0.0000 23.0190 9.9688 -11.8087 -6.0114 -14.4394 45.0276 -1.3893 -11.5657 21.4013 -0.8046 -5.7248 15.9879 6.1498 0.1544 8.7575 4.1815 1.0572 -0.2373 0.7780 0.4142 -5.1471 -12.4956 -6.4964 -16.1995 10.5520 -8.1753 19.1702 4.6465 -3.6241 9.7087 0.0000 -0.0000 0.0000 -93.8778 27.0227 27.0025 28.8075 -39.8490 -10.6371 -0.0000 0.0000 -19.4417 23.9780 6.7253 2.9817 -7.1250 0.0000 -0.0000 -2.3720 37.3243 0.4484 0.0000 -0.0000 0.0000 82.9177 -23.3499 30.5532 -30.5408 41.3525 -11.7653 0.0000 -0.0000 -31.0638 -24.1721 -0.6807 0.3055 7.1250 -0.0000 -0.0000 1.9023 -30.7228 0.6638
5.0968 21.4479 0.4717 -7.5770 -1.9775 7.4775 0.0000 0.0000 0.0000 -12.0651 2.1581 -11.5249 4.7629 13.1117 39.7880 1.1741 -8.4830 25.1671 0.2385 3.1427 8.6762 0.0000 0.0000 0.0000 22.8489 10.1413 -12.7974 -5.8447 -14.2762 44.3554 -1.2098 -11.2110 20.0162 -0.7694 -5.6010 15.6309 6.0808 0.1411 9.0118 4.2238 1.0554 -0.1917 0.8601 0.4141 -5.2447 -12.5650 -6.4674 -16.0158 10.4979 -8.1265 19.1827 4.6493 -3.6177 9.6732 -0.0000 -0.0000 0.0000 -93.8518 26.1888 27.4329 27.9974 -39.1138 -10.1220 -0.0000 0.0000 -19.9403 23.9242 6.6146 2.9255 -7.1250 0.0000 -0.0000 -2.4090 37.2002 0.4627 -0.0000 -0.0000 0.0000 83.2631 -22.3251 29.9177 -29.4151 40.3867 -11.0286 0.0000 -0.0000 -31.6313 -25.6137 -0.5063 0.2427 7.1250 -0.0000 -0.0000 0.7553 -30.5407 0.2667
5.0979 21.5208 0.7175 -7.4933 -1.9547 7.3443 0.0000 0.0000 0.0000 -12.2331 1.9560 -12.5301 4.6065 12.9264 39.0936 1.0107 -7.9627 23.4557 0.2131 2.9722 8.2013 0.0000 0.0000 0.0000 22.6227 10.3597 -13.7844 -5.6731 -14.1039 43.6550 -1.0668 -10.8314 18.8318 -0.7316 -5.4648 15.2391 5.9709 0.1356 9.2879 4.2498 1.0593 -0.1306 0.9470 0.4181 -5.3384 -12.6191 -6.4478 -15.8712 10.4517 -8.0896 19.1637 4.6491 -3.6136 9.6353 -0.0000 -0.0000 0.0000 -93.7847 25.3808 27.9077 27.2552 -38.4214 -9.6573 -0.0000 0.0000 -20.1388 23.7843 6.3998 2.8124 -7.1250 0.0000 -0.0000 -2.5107 36.9577 0.4971 -0.0000 -0.0000 0.0000 83.5343 -21.3398 29.4412 -28.3952 39.4775 -10.3740 0.0000 -0.0000 -32.0101 -26.8115 -0.3277 0.1656 7.1250 -0.0000 -0.0000 -0.1946 -30.3469 -0.0696
5.0983 21.5804 0.9632 -7.3826 -1.9376 7.1874 0.0000 0.0000 0.0000 -12.4164 1.7000 -13.4409 4.4192 12.6983 38.2493 0.8815 -7.3868 21.8947 0.1831 2.7559 7.5999 0.0000 0.0000 0.0000 22.3561 10.6032 -14.7477 -5.4966 -13.9221 42.9263 -0.9533 -10.4865 17.8354 -0.6951 -5.3297 14.8515 5.8320 0.1304 9.6019 4.2599 1.0612 -0.0510 1.0337 0.4219 -5.4340 -12.6530 -6.4362 -15.7726 10.4072 -8.0633 19.1352 4.6438 -3.6113 9.6031 0.0000 0.0000 0.0000 -93.6789 24.6083 28.4179 26.5896 -37.7850 -9.2466 -0.0000 0.0000 -20.0008 23.5930 6.1316 2.6709 -7.1250 0.0000 -0.0000 -2.6516 36.6546 0.5447 0.0000 0.0000 0.0000 83.7491 -20.4123 29.0991 -27.4939 38.6462 -9.8060 0.0000 -0.0000 -32.1438 -27.7031 -0.1834 0.0963 7.1250 -0.0000 -0.0000 -0.8990 -30.1862 -0.3251
5.0979 21.6270 1.2085 -7.2561 -1.9118 6.9962 0.0000 0.0000 0.0000 -12.5956 1.3905 -14.2537 4.2077 12.4318 37.2772 0.7800 -6.7743 20.4840 0.1517 2.5100 6.9172 0.0000 0.0000 0.0000 22.0663 10.8528 -15.6756 -5.3152 -13.7302 42.1671 -0.8631 -10.2107 17.0064 -0.6603 -5.1970 14.4712 5.6766 0.1197 9.9609 4.2568 1.0544 0.0532 1.1167 0.4219 -5.5290 -12.6577 -6.4338 -15.7352 10.3544 -8.0485 19.1105 4.6279 -3.6111 9.5835 0.0000 -0.0000 0.0000 -93.5398 23.8628 28.9507 25.9945 -37.2032 -8.8843 -0.0000 0.0000 -19.5155 23.3883 5.8562 2.5267 -7.1250 0.0000 -0.0000 -2.8027 36.3440 0.5971 0.0000 -0.0000 0.0000 83.9210 -19.5433 28.8747 -26.7172 37.9082 -9.3248 0.0000 -0.0000 -32.0226 -28.2703 -0.1081 0.0582 7.1250 -0.0000 -0.0000 -1.3460 -30.1012 -0.4895
5.0973 21.6612 1.4545 -7.1260 -1.8875 6.7665 0.0000 0.0000 0.0000 -12.7604 1.0398 -14.9641 3.9774 12.1302 36.1943 0.7002 -6.1369 19.2116 0.1221 2.2522 6.2032 0.0000 0.0000 0.0000 21.7645 11.1042 -16.5525 -5.1280 -13.5266 41.3730 -0.7900 -10.0198 16.3133 -0.6274 -5.0684 14.1037 5.5213 0.1043 10.3694 4.2436 1.0434 0.1693 1.1899 0.4196 -5.6389 -12.6447 -6.4375 -15.7311 10.2947 -8.0424 19.1028 4.6050 -3.6134 9.5760 -0.0000 -0.0000 0.0000 -93.3767 23.1798 29.4950 25.4823 -36.6929 -8.5764 -0.0000 0.0000 -18.7069 23.1995 5.6541 2.4179 -7.1250 0.0000 -0.0000 -2.9457 36.1144 0.6442 -0.0000 -0.0000 0.0000 84.0508 -18.7716 28.7677 -26.0703 37.2780 -8.9302 0.0000 -0.0000 -31.6895 -28.5375 -0.1172 0.0637 7.1250 -0.0000 -0.0000 -1.5570 -30.1114 -0.5660
5.0965 21.6833 1.7004 -6.9995 -1.8572 6.5085 0.0000 0.0000 0.0000 -12.8996 0.6453 -15.5921 3.7329 11.7963 35.0150 0.6391 -5.4826 18.0856 0.0976 2.0147 5.5463 0.0000 0.0000 0.0000 21.4591 11.3531 -17.3890 -4.9352 -13.3104 40.5420 -0.7290 -9.9311 15.7311 -0.5961 -4.9426 13.7449 5.3738 0.0847 10.8246 4.2223 1.0298 0.2870 1.2508 0.4153 -5.7727 -12.6183 -6.4458 -15.7435 10.2327 -8.0451 19.1125 4.5779 -3.6186 9.5781 -0.0000 -0.0000 0.0000 -93.1881 22.5759 30.0466 25.0487 -36.2537 -8.3187 -0.0000 0.0000 -17.6124 23.0376 5.4956 2.3321 -7.1250 0.0000 -0.0000 -3.0691 35.9342 0.6847 -0.0000 -0.0000 0.0000 84.1430 -18.1156 28.7794 -25.5608 36.7717 -8.6234 0.0000 -0.0000 -31.2284 -28.5357 -0.1956 0.1064 7.1250 -0.0000 -0.0000 -1.5569 -30.2005 -0.5626
5.0960 21.6934 1.9469 -6.8844 -1.8378 6.2322 0.0000 0.0000 0.0000 -13.0085 0.2188 -16.1485 3.4785 11.4320 33.7512 0.5934 -4.8120 17.0993 0.0771 1.7915 4.9297 0.0000 0.0000 0.0000 21.1536 11.6062 -18.1888 -4.7367 -13.0810 39.6724 -0.6771 -9.9311 15.2375 -0.5648 -4.8134 13.3770 5.2441 0.0667 11.3043 4.1948 1.0207 0.4067 1.2949 0.4126 -5.9173 -12.5866 -6.4588 -15.7783 10.1734 -8.0557 19.1477 4.5498 -3.6262 9.5941 0.0000 0.0000 0.0000 -92.9740 22.0538 30.6076 24.6976 -35.8933 -8.1119 -0.0000 0.0000 -16.3088 22.8986 5.4071 2.2793 -7.1250 0.0000 -0.0000 -3.1785 35.8312 0.7172 0.0000 0.0000 0.0000 84.1953 -17.5670 28.9177 -25.1779 36.3853 -8.3952 0.0000 -0.0000 -30.7447 -28.3254 -0.2911 0.1569 7.1250 -0.0000 -0.0000 -1.3921 -30.3089 -0.4994
5.0959 21.6918 2.1942 -6.7831 -1.8316 5.9494 0.0000 0.0000 0.0000 -13.0833 -0.2402 -16.6492 3.2185 11.0406 32.4170 0.5558 -4.1481 16.2077 0.0564 1.5331 4.2169 0.0000 0.0000 0.0000 20.8501 11.8596 -18.9628 -4.5337 -12.8386 38.7672 -0.6321 -9.9928 14.8151 -0.5291 -4.6612 12.9447 5.1399 0.0523 11.7842 4.1587 1.0180 0.5248 1.3147 0.4121 -6.0624 -12.5503 -6.4751 -15.8113 10.1210 -8.0748 19.1939 4.5223 -3.6367 9.6148 -0.0000 -0.0000 0.0000 -92.7283 21.6227 31.1760 24.4369 -35.6229 -7.9596 -0.0000 0.0000 -14.8756 22.7837 5.3989 2.2631 -7.1250 0.0000 -0.0000 -3.2738 35.8165 0.7399 -0.0000 -0.0000 0.0000 84.2109 -17.1279 29.1953 -24.9197 36.1218 -8.2425 0.0000 -0.0000 -30.3383 -27.9820 -0.3438 0.1827 7.1250 -0.0000 -0.0000 -1.1211 -30.3681 -0.4006
5.0962 21.6783 2.4423 -6.7011 -1.8439 5.6766 0.0000 0.0000 0.0000 -13.1156 -0.7281 -17.1154 2.9570 10.6251 31.0257 0.5266 -3.4812 15.4214 0.0394 1.2807 3.5216 0.0000 0.0000 0.0000 20.5544 12.1174 -19.7272 -4.3274 -12.5838 37.8297 -0.5929 -10.0943 14.4533 -0.4892 -4.4848 12.4448 5.0621 0.0447 12.2435 4.1181 1.0246 0.6445 1.3135 0.4157 -6.1932 -12.5195 -6.4948 -15.8647 10.0867 -8.0998 19.2528 4.5012 -3.6479 9.6456 -0.0000 -0.0000 0.0000 -92.4550 21.2463 31.7446 24.2424 -35.4196 -7.8466 -0.0000 0.0000 -13.4028 22.6677 5.4083 2.2543 -7.1250 0.0000 -0.0000 -3.3715 35.8209 0.7617 -0.0000 -0.0000 0.0000 84.1854 -16.7730 29.6161 -24.7739 35.9719 -8.1567 0.0000 -0.0000 -30.0682 -27.5936 -0.3311 0.1730 7.1250 -0.0000 -0.0000 -0.8136 -30.3528 -0.2910
5.0967 21.6526 2.6915 -6.6360 -1.8743 5.4210 0.0000 0.0000 0.0000 -13.1037 -1.2459 -17.5573 2.6979 10.1892 29.5915 0.5035 -2.8170 14.7280 0.0270 1.0607 2.9158 0.0000 0.0000 0.0000 20.2664 12.3735 -20.4910 -4.1194 -12.3176 36.8651 -0.5587 -10.2024 14.1392 -0.4467 -4.2880 11.8883 5.0087 0.0462 12.6684 4.0721 1.0427 0.7662 1.2909 0.4245 -6.3015 -12.4895 -6.5196 -15.9394 10.0656 -8.1328 19.3155 4.4835 -3.6609 9.6834 -0.0000 -0.0000 0.0000 -92.1542 20.9149 32.3104 24.1136 -35.2841 -7.7721 -0.0000 0.0000 -11.9757 22.5475 5.4200 2.2458 -7.1250 0.0000 -0.0000 -3.4728 35.8274 0.7841 -0.0000 -0.0000 0.0000 84.1218 -16.4879 30.1783 -24.7298 35.9266 -8.1309 0.0000 -0.0000 -29.9476 -27.2500 -0.2537 0.1307 7.1250 -0.0000 -0.0000 -0.5414 -30.2649 -0.1947
